<svg width="25" height="20" viewBox="0 0 25 20" fill="none" xmlns="http://www.w3.org/2000/svg">
<path id="Vector" d="M24.5264 7.03516C24.7168 6.88379 25 7.02539 25 7.26465V17.25C25 18.5439 23.9502 19.5938 22.6562 19.5938H2.34375C1.0498 19.5938 0 18.5439 0 17.25V7.26953C0 7.02539 0.27832 6.88867 0.473633 7.04004C1.56738 7.88965 3.01758 8.96875 7.99805 12.5869C9.02832 13.3389 10.7666 14.9209 12.5 14.9111C14.2432 14.9258 16.0156 13.3096 17.0068 12.5869C21.9873 8.96875 23.4326 7.88477 24.5264 7.03516ZM12.5 13.3438C13.6328 13.3633 15.2637 11.918 16.084 11.3223C22.5635 6.62012 23.0566 6.20996 24.5508 5.03809C24.834 4.81836 25 4.47656 25 4.11523V3.1875C25 1.89355 23.9502 0.84375 22.6562 0.84375H2.34375C1.0498 0.84375 0 1.89355 0 3.1875V4.11523C0 4.47656 0.166016 4.81348 0.449219 5.03809C1.94336 6.20508 2.43652 6.62012 8.91602 11.3223C9.73633 11.918 11.3672 13.3633 12.5 13.3438Z" fill="black"/>
</svg>
