<svg width="22" height="26" viewBox="0 0 22 26" fill="none" xmlns="http://www.w3.org/2000/svg">
<path id="Vector" d="M10.9375 12.7188C14.3896 12.7188 17.1875 9.9209 17.1875 6.46875C17.1875 3.0166 14.3896 0.21875 10.9375 0.21875C7.48535 0.21875 4.6875 3.0166 4.6875 6.46875C4.6875 9.9209 7.48535 12.7188 10.9375 12.7188ZM15.6152 14.3105L13.2812 23.6562L11.7188 17.0156L13.2812 14.2812H8.59375L10.1562 17.0156L8.59375 23.6562L6.25977 14.3105C2.77832 14.4766 0 17.3232 0 20.8438V22.875C0 24.1689 1.0498 25.2188 2.34375 25.2188H19.5312C20.8252 25.2188 21.875 24.1689 21.875 22.875V20.8438C21.875 17.3232 19.0967 14.4766 15.6152 14.3105Z" fill="black"/>
</svg>
